# xmcd CD database file
#
# Track frame offsets:
#	150
#	26973
#	45127
#
# Disc length: 863 seconds
#
# Revision: 0
# Processed by: cddbd v1.5.1PL0 Copyright (c) Steve Scherf et al.
# Submitted via: CDex 1.51
#
DISCID=1a035d03
DTITLE=笹川美和 - 止めないで　美しい影
DYEAR=2005
DGENRE=Vocal
TTITLE0=止めないで
TTITLE1=美しい影
TTITLE2=あなた　あたし
EXTD=YEAR: 2005
EXTT0=
EXTT1=
EXTT2=
PLAYORDER=
